<svg width="10" height="12" viewBox="0 0 10 12"  xmlns="http://www.w3.org/2000/svg" fill="currentColor">
<path d="M2.15561 11.0528C1.94202 11.0015 1.74247 10.9252 1.58122 10.7705C1.36474 10.5631 1.29191 10.3038 1.26831 10.0198C1.17566 8.90171 1.07833 7.78402 0.983452 6.66589C0.905947 5.75214 0.829778 4.83839 0.752496 3.92464C0.734011 3.70599 0.716639 3.48734 0.690358 3.26955C0.685681 3.23062 0.64871 3.1785 0.612408 3.1625C0.219314 2.98796 -0.0307954 2.60581 0.00305738 2.2189C0.0422554 1.76949 0.334013 1.42669 0.772763 1.32526C0.868976 1.30299 0.97098 1.29823 1.07031 1.2978C1.55917 1.2952 2.04826 1.2965 2.53712 1.2965C2.57698 1.2965 2.61685 1.2965 2.66674 1.2965C2.66674 1.19355 2.66585 1.10099 2.66674 1.00842C2.6732 0.420812 3.10059 0.00405511 3.70615 0.00210865C4.56918 -0.000702885 5.4322 -0.000702885 6.29545 0.00210865C6.90101 0.00405511 7.32863 0.421028 7.33464 1.00842C7.33553 1.10099 7.33464 1.19355 7.33464 1.2965C7.38497 1.2965 7.42462 1.2965 7.46426 1.2965C7.96426 1.2965 8.46448 1.29455 8.96447 1.29715C9.45333 1.29953 9.82349 1.56554 9.96046 2.00739C10.0992 2.45528 9.86202 2.95898 9.41792 3.14627C9.34465 3.1772 9.31057 3.20986 9.30389 3.29096C9.24287 4.04359 9.17717 4.796 9.11258 5.54841C9.04888 6.29001 8.98452 7.03161 8.92127 7.77342C8.85846 8.51156 8.7912 9.24948 8.73641 9.98805C8.70969 10.3497 8.61013 10.6721 8.28029 10.8761C8.14978 10.9567 7.99165 10.9954 7.84599 11.0532H2.15561V11.0528ZM1.36296 3.24403C1.3761 3.40039 1.3879 3.54378 1.39993 3.68696C1.4545 4.33188 1.50906 4.9768 1.56407 5.62173C1.62732 6.36333 1.69191 7.10492 1.75516 7.84652C1.81752 8.5773 1.87677 9.30852 1.9418 10.0393C1.96563 10.3086 2.08189 10.4052 2.35894 10.4052C3.55159 10.4052 4.74423 10.4052 5.93687 10.4052C6.52217 10.4052 7.10725 10.4061 7.69254 10.4048C7.90078 10.4044 8.02907 10.2971 8.05178 10.0983C8.07628 9.88402 8.09276 9.66883 8.1108 9.45386C8.18786 8.54378 8.26359 7.63371 8.34131 6.72363C8.42639 5.7277 8.51347 4.73177 8.599 3.73583C8.61303 3.57298 8.62439 3.40991 8.63708 3.24403H1.36296ZM5.01216 1.9438C3.70816 1.9438 2.40416 1.9438 1.10016 1.9438C1.05561 1.9438 1.01085 1.94164 0.966971 1.94661C0.738019 1.97148 0.601049 2.20354 0.69949 2.40273C0.772986 2.55153 0.905279 2.59262 1.06675 2.5924C3.68967 2.59089 6.31237 2.59132 8.9353 2.5911C8.9687 2.5911 9.00211 2.59219 9.0353 2.58851C9.20612 2.56991 9.33485 2.43106 9.33485 2.26734C9.33485 2.10363 9.20612 1.96435 9.0353 1.9464C8.9912 1.94164 8.94643 1.94358 8.90211 1.94358C7.60546 1.94358 6.30903 1.94358 5.01238 1.94358L5.01216 1.9438ZM6.66805 1.29282C6.66805 1.19247 6.66872 1.10315 6.66805 1.01383C6.66627 0.776363 6.53531 0.649628 6.28899 0.648763C5.95224 0.647898 5.6155 0.648546 5.27875 0.648546C4.75314 0.648546 4.22775 0.647898 3.70214 0.648979C3.50771 0.649412 3.36273 0.750627 3.34201 0.917373C3.32687 1.03978 3.33912 1.16544 3.33912 1.29282H6.66827H6.66805Z" />
<path d="M2.66936 4.25907C2.65844 4.00279 2.86646 3.8248 3.10677 3.90612C3.2473 3.9537 3.3237 4.0547 3.33327 4.19657C3.3796 4.89232 3.42303 5.58807 3.46779 6.28382C3.52436 7.16599 3.58115 8.04838 3.63772 8.93056C3.64775 9.08844 3.66133 9.2461 3.66623 9.40398C3.67247 9.6036 3.53372 9.75131 3.34307 9.7565C3.15822 9.76169 3.01345 9.62479 3.0012 9.43123C2.91835 8.12927 2.83617 6.82731 2.7531 5.52535C2.72659 5.10924 2.69831 4.69335 2.66958 4.25886L2.66936 4.25907Z" />
<path d="M6.33771 9.35471C6.40853 8.25734 6.4798 7.15976 6.5504 6.0624C6.58982 5.44905 6.62902 4.8357 6.66621 4.22235C6.6749 4.08048 6.73481 3.97213 6.87044 3.91481C6.99717 3.86118 7.1181 3.88281 7.22211 3.97104C7.31253 4.04782 7.34037 4.14925 7.33302 4.26301C7.30073 4.76152 7.26933 5.26003 7.23726 5.75853C7.19561 6.40778 7.15352 7.05682 7.11187 7.70607C7.07445 8.28719 7.03882 8.8681 6.99962 9.449C6.98715 9.63413 6.83436 9.76498 6.6524 9.75676C6.47446 9.74854 6.33993 9.61034 6.33526 9.43019C6.33459 9.4051 6.33526 9.3798 6.33526 9.35471C6.33615 9.35471 6.33704 9.35471 6.33793 9.35471H6.33771Z" />
<path d="M5.33593 6.83354C5.33593 7.68955 5.33682 8.54577 5.33548 9.40177C5.33504 9.65503 5.12101 9.81658 4.89406 9.73743C4.75865 9.69028 4.68671 9.59253 4.67134 9.45519C4.66734 9.41951 4.66956 9.38339 4.66956 9.34727C4.66956 7.66381 4.66956 5.98035 4.66956 4.29688C4.66956 4.03865 4.79295 3.88748 5.00319 3.8877C5.21388 3.8877 5.33637 4.03822 5.33637 4.29753C5.33637 5.14294 5.33637 5.98813 5.33637 6.83354H5.33593Z" />
</svg>
