<svg viewBox="0 0 11 12"  xmlns="http://www.w3.org/2000/svg" fill="currentColor">
<path d="M6.875 10.5731C6.875 9.96797 6.875 9.3743 6.875 8.78064C6.875 8.56616 6.90947 8.35933 7.00522 8.16783C7.26184 7.66609 7.67166 7.39032 8.23851 7.37883C8.80919 7.36734 9.37604 7.37883 9.94673 7.37883C9.98503 7.37883 10.0233 7.37883 10.0808 7.37883V7.24861C10.0808 6.5477 10.0808 5.8468 10.0808 5.14206C10.0808 4.93524 10.1459 4.76288 10.3451 4.66713C10.6132 4.54074 10.9272 4.69394 10.9847 4.98503C10.9962 5.04248 10.9962 5.10759 10.9962 5.16504C10.9962 6.08426 10.9962 7.00348 10.9962 7.92653C10.9962 8.60829 10.7625 9.1828 10.2761 9.65773C9.84715 10.079 9.42584 10.5118 8.99304 10.9255C8.61003 11.2893 8.13893 11.4655 7.61421 11.4962C7.55292 11.5 7.49164 11.5 7.43036 11.5C5.73363 11.5 4.03691 11.5 2.34018 11.5C1.63162 11.5 1.03412 11.2396 0.563022 10.711C0.225975 10.3242 0.0383008 9.86455 0.00383008 9.34749C0.00383008 9.29387 0 9.24025 0 9.18663C0 7.06476 0 4.9429 0 2.8172C0 2.1163 0.268106 1.52646 0.792827 1.06302C1.18733 0.722145 1.65077 0.526811 2.17932 0.50766C2.57765 0.49617 2.97215 0.50383 3.37047 0.5C4.37396 0.5 5.37361 0.5 6.37709 0.5C6.58774 0.5 6.75627 0.568942 6.84819 0.768106C6.97075 1.02855 6.82138 1.33496 6.54178 1.40007C6.47667 1.41539 6.40773 1.41922 6.33879 1.41922C4.99826 1.41922 3.66156 1.41922 2.32103 1.41922C1.68907 1.41922 1.16818 1.78308 0.988162 2.35759C0.942201 2.50313 0.91922 2.66017 0.91922 2.80954C0.91539 4.93141 0.91539 7.05327 0.91922 9.17897C0.91922 9.98329 1.50522 10.5731 2.30954 10.5731C3.79944 10.5731 5.28935 10.5731 6.77925 10.5731C6.80606 10.5731 6.8367 10.5731 6.875 10.5693V10.5731ZM10.0425 8.29422C10.0042 8.29422 9.97354 8.29422 9.94673 8.29422C9.3952 8.29422 8.84366 8.30571 8.29596 8.29039C8.01637 8.28273 7.78656 8.51637 7.79422 8.79213C7.80954 9.34366 7.79805 9.89137 7.79805 10.4429C7.79805 10.4735 7.80188 10.5042 7.80571 10.5386C8.07765 10.4812 8.29213 10.351 8.4798 10.1633C8.8743 9.77263 9.2688 9.38196 9.65564 8.98746C9.84331 8.79596 9.99269 8.57765 10.0425 8.29039V8.29422Z"/>
<path d="M3.12519 9.20194C2.9873 9.20194 2.84559 9.20577 2.70771 9.20194C2.51237 9.19428 2.30555 9.01427 2.30172 8.82277C2.29406 8.38614 2.25576 7.94951 2.37832 7.52054C2.4779 7.172 2.63877 6.8541 2.89155 6.59366C3.1903 6.28725 3.49671 5.98467 3.79928 5.67827C5.36196 4.11176 6.92463 2.54909 8.4873 0.982584C8.80137 0.668517 9.17672 0.507653 9.62484 0.522974C10.3143 0.542124 10.8964 1.07451 10.973 1.76009C11.0266 2.23502 10.8773 2.64101 10.5402 2.97806C8.68647 4.83182 6.82888 6.68558 4.97129 8.53934C4.50402 9.00661 3.92951 9.21343 3.27073 9.20194C3.22094 9.20194 3.17115 9.20194 3.12136 9.20194H3.12519ZM3.20945 8.29038C3.68438 8.31336 4.07505 8.15633 4.40061 7.82694C6.22373 5.99616 8.05068 4.16921 9.87763 2.34226C9.90827 2.31162 9.93891 2.28098 9.96572 2.24651C10.0883 2.08948 10.1074 1.8635 10.0117 1.69115C9.83932 1.38474 9.43717 1.33495 9.18055 1.59157C8.449 2.32311 7.71746 3.05466 6.98591 3.78237C5.87902 4.88544 4.77212 5.99233 3.66523 7.0954C3.33584 7.42095 3.18647 7.81162 3.20945 8.28272V8.29038Z"/>
</svg>
