<svg viewBox="0 0 200 200" fill="none" xmlns="http://www.w3.org/2000/svg">
<g clip-path="url(#clip0_5010_157477)">
<mask id="mask0_5010_157477" style="mask-type:luminance" maskUnits="userSpaceOnUse" x="0" y="0" width="200" height="200">
<path d="M200 0H0V200H200V0Z" fill="white"/>
</mask>
<g mask="url(#mask0_5010_157477)">
<path d="M200 0H0V200H200V0Z" fill="#99C0FE"/>
<path d="M199.5 128C188.726 267.538 -15 75 18.0003 103C51.0006 131 159.5 13 159.5 13C159.5 13 203.161 80.5917 199.5 128Z" fill="#7D8ACA"/>
<path d="M175.999 -55.4998C329.499 -31.4995 137 169 -0.00069046 199.932C-137.001 230.865 229.832 158.493 229.832 158.493C229.832 158.493 22.4993 -79.5 175.999 -55.4998Z" fill="url(#paint0_linear_5010_157477)"/>
<g filter="url(#filter0_d_5010_157477)">
<path d="M200.025 -0.0498047C86 55.5 235.5 176 -0.125 199.95L200.025 200.025V-0.0498047Z" fill="url(#paint1_linear_5010_157477)"/>
</g>
<path d="M174.894 24.5562H63.6162C61.5447 24.5562 59.8652 26.2355 59.8652 28.3071V133.333C59.8652 135.405 61.5447 137.084 63.6162 137.084H174.894C176.966 137.084 178.645 135.405 178.645 133.333V28.3071C178.645 26.2355 176.966 24.5562 174.894 24.5562Z" fill="white"/>
<path d="M97.0501 79.5698H70.0469V92.0729H97.0501V79.5698Z" fill="#E1E6EA"/>
<path d="M178.645 33.3083H59.8652V28.3071C59.8652 26.2356 61.5447 24.5562 63.6162 24.5562H174.894C176.966 24.5562 178.645 26.2356 178.645 28.3071V33.3083Z" fill="#545F75"/>
<path d="M66.7427 30.8081C67.7784 30.8081 68.6181 29.9684 68.6181 28.9326C68.6181 27.8968 67.7784 27.0571 66.7427 27.0571C65.7069 27.0571 64.8672 27.8968 64.8672 28.9326C64.8672 29.9684 65.7069 30.8081 66.7427 30.8081Z" fill="#979CA5"/>
<path d="M72.9927 30.8081C74.0284 30.8081 74.8681 29.9684 74.8681 28.9326C74.8681 27.8968 74.0284 27.0571 72.9927 27.0571C71.9569 27.0571 71.1172 27.8968 71.1172 28.9326C71.1172 29.9684 71.9569 30.8081 72.9927 30.8081Z" fill="#979CA5"/>
<path d="M79.2446 30.8081C80.2804 30.8081 81.1201 29.9684 81.1201 28.9326C81.1201 27.8968 80.2804 27.0571 79.2446 27.0571C78.2089 27.0571 77.3691 27.8968 77.3691 28.9326C77.3691 29.9684 78.2089 30.8081 79.2446 30.8081Z" fill="#979CA5"/>
<path d="M122.56 47.062H70.0469V52.0633H122.56V47.062Z" fill="#545F75"/>
<path d="M162.266 40.0602C162.957 40.0602 163.516 39.5004 163.516 38.8099C163.516 38.1194 162.957 37.5596 162.266 37.5596C161.575 37.5596 161.016 38.1194 161.016 38.8099C161.016 39.5004 161.575 40.0602 162.266 40.0602Z" fill="#545F75"/>
<path d="M157.264 40.0602C157.955 40.0602 158.514 39.5004 158.514 38.8099C158.514 38.1194 157.955 37.5596 157.264 37.5596C156.573 37.5596 156.014 38.1194 156.014 38.8099C156.014 39.5004 156.573 40.0602 157.264 40.0602Z" fill="#BFDCE8"/>
<path d="M167.268 40.0602C167.959 40.0602 168.518 39.5004 168.518 38.8099C168.518 38.1194 167.959 37.5596 167.268 37.5596C166.577 37.5596 166.018 38.1194 166.018 38.8099C166.018 39.5004 166.577 40.0602 167.268 40.0602Z" fill="#FF8C71"/>
<path d="M107.69 74.5688H70.0469V77.0695H107.69V74.5688Z" fill="#ACB3B7"/>
<path d="M121.505 75.3188H110.09V76.5692H121.505V75.3188Z" fill="#BFDCE8"/>
<path d="M133.827 79.5698H102.055V80.8201H133.827V79.5698Z" fill="#E1E6EA"/>
<path d="M127.888 83.3208H102.055V84.5711H127.888V83.3208Z" fill="#E1E6EA"/>
<path d="M133.827 87.0718H102.055V88.3221H133.827V87.0718Z" fill="#E1E6EA"/>
<path d="M113.163 90.8228H102.014V92.0731H113.163V90.8228Z" fill="#E1E6EA"/>
<path d="M113.164 94.5737H70.0469V95.824H113.164V94.5737Z" fill="#E1E6EA"/>
<path d="M132.82 91.5815H119.194C118.686 91.5815 118.273 91.9936 118.273 92.5023V94.9034C118.273 95.412 118.686 95.8241 119.194 95.8241H132.82C133.329 95.8241 133.741 95.412 133.741 94.9034V92.5023C133.741 91.9936 133.329 91.5815 132.82 91.5815Z" fill="#FF8C71"/>
<path d="M128.758 77.0695C129.449 77.0695 130.008 76.5098 130.008 75.8192C130.008 75.1285 129.449 74.5688 128.758 74.5688C128.067 74.5688 127.508 75.1285 127.508 75.8192C127.508 76.5098 128.067 77.0695 128.758 77.0695Z" fill="#ACB3B7"/>
<path d="M125.006 77.0695C125.697 77.0695 126.256 76.5098 126.256 75.8192C126.256 75.1285 125.697 74.5688 125.006 74.5688C124.315 74.5688 123.756 75.1285 123.756 75.8192C123.756 76.5098 124.315 77.0695 125.006 77.0695Z" fill="#ACB3B7"/>
<path d="M132.508 77.0695C133.199 77.0695 133.758 76.5098 133.758 75.8192C133.758 75.1285 133.199 74.5688 132.508 74.5688C131.817 74.5688 131.258 75.1285 131.258 75.8192C131.258 76.5098 131.817 77.0695 132.508 77.0695Z" fill="#ACB3B7"/>
<path d="M86.1875 92.0731L89.2558 86.7583L92.3245 92.0731H86.1875Z" fill="#545F75"/>
<path d="M78.0957 92.0729L83.7781 82.231L89.4605 92.0729H78.0957Z" fill="#FF8C71"/>
<path d="M74.5918 92.073L78.6918 84.9712L82.7919 92.073H74.5918Z" fill="#545F75"/>
<path d="M97.0501 110.828H70.0469V123.331H97.0501V110.828Z" fill="#545F75"/>
<path d="M107.69 105.827H70.0469V108.327H107.69V105.827Z" fill="#ACB3B7"/>
<path d="M121.505 106.577H110.09V107.827H121.505V106.577Z" fill="#BFDCE8"/>
<path d="M133.827 110.828H102.055V112.078H133.827V110.828Z" fill="#E1E6EA"/>
<path d="M127.888 114.579H102.055V115.829H127.888V114.579Z" fill="#E1E6EA"/>
<path d="M133.827 118.33H102.055V119.58H133.827V118.33Z" fill="#E1E6EA"/>
<path d="M113.163 122.081H102.014V123.331H113.163V122.081Z" fill="#E1E6EA"/>
<path d="M113.164 125.832H70.0469V127.082H113.164V125.832Z" fill="#E1E6EA"/>
<path d="M132.82 122.839H119.194C118.686 122.839 118.273 123.251 118.273 123.76V126.161C118.273 126.67 118.686 127.082 119.194 127.082H132.82C133.329 127.082 133.741 126.67 133.741 126.161V123.76C133.741 123.251 133.329 122.839 132.82 122.839Z" fill="#FF8C71"/>
<path d="M128.758 108.327C129.449 108.327 130.008 107.768 130.008 107.077C130.008 106.386 129.449 105.827 128.758 105.827C128.067 105.827 127.508 106.386 127.508 107.077C127.508 107.768 128.067 108.327 128.758 108.327Z" fill="#ACB3B7"/>
<path d="M125.006 108.327C125.697 108.327 126.256 107.768 126.256 107.077C126.256 106.386 125.697 105.827 125.006 105.827C124.315 105.827 123.756 106.386 123.756 107.077C123.756 107.768 124.315 108.327 125.006 108.327Z" fill="#ACB3B7"/>
<path d="M132.508 108.327C133.199 108.327 133.758 107.768 133.758 107.077C133.758 106.386 133.199 105.827 132.508 105.827C131.817 105.827 131.258 106.386 131.258 107.077C131.258 107.768 131.817 108.327 132.508 108.327Z" fill="#ACB3B7"/>
<path d="M168.517 59.5649H69.9922V67.0668H168.517V59.5649Z" fill="#95E5A3"/>
<path d="M85.496 62.6909H77.9941V63.9412H85.496V62.6909Z" fill="white"/>
<path d="M97.9999 62.6909H90.498V63.9412H97.9999V62.6909Z" fill="white"/>
<path d="M110.504 62.6909H103.002V63.9412H110.504V62.6909Z" fill="white"/>
<path d="M123.006 62.6909H115.504V63.9412H123.006V62.6909Z" fill="white"/>
<path d="M135.51 62.6909H128.008V63.9412H135.51V62.6909Z" fill="white"/>
<path d="M148.012 62.6909H140.51V63.9412H148.012V62.6909Z" fill="white"/>
<path d="M160.516 62.6909H153.014V63.9412H160.516V62.6909Z" fill="white"/>
<path d="M77.4858 38.3096H69.8594V39.5599H77.4858V38.3096Z" fill="#545F75"/>
<path d="M115.183 38.3096H107.557V39.5599H115.183V38.3096Z" fill="#ACB3B7"/>
<path d="M102.679 38.3096H95.0527V39.5599H102.679V38.3096Z" fill="#ACB3B7"/>
<path d="M90.1772 38.3096H82.5508V39.5599H90.1772V38.3096Z" fill="#ACB3B7"/>
<path d="M164.06 47.062H138.449V52.0633H164.06V47.062Z" fill="#E1E6EA"/>
<path d="M168.672 74.5254H138.449V79.6137H168.672V74.5254Z" fill="#BFDCE8"/>
<path d="M168.577 47.062H163.576V52.0633H168.577V47.062Z" fill="#545F75"/>
<path d="M168.706 82.3208H146.049V83.5711H168.706V82.3208Z" fill="#ACB3B7"/>
<path d="M166.054 86.0718H146.049V87.3221H166.054V86.0718Z" fill="#E1E6EA"/>
<path d="M165.953 90.0728H146.049V91.3231H165.953V90.0728Z" fill="#ACB3B7"/>
<path d="M163.771 93.8237H146.049V95.074H163.771V93.8237Z" fill="#E1E6EA"/>
<path d="M167.706 97.5747H146.049V98.825H167.706V97.5747Z" fill="#ACB3B7"/>
<path d="M165.171 101.325H146.049V102.576H165.171V101.325Z" fill="#E1E6EA"/>
<path d="M165.865 105.327H146.049V106.577H165.865V105.327Z" fill="#ACB3B7"/>
<path d="M164.51 109.077H146.049V110.327H164.51V109.077Z" fill="#E1E6EA"/>
<path d="M143.427 82.3208H138.426V87.3221H143.427V82.3208Z" fill="#E1E6EA"/>
<path d="M143.427 89.9893H138.426V94.9905H143.427V89.9893Z" fill="#E1E6EA"/>
<path d="M143.427 97.4912H138.426V102.492H143.427V97.4912Z" fill="#E1E6EA"/>
<path d="M143.427 105.327H138.426V110.328H143.427V105.327Z" fill="#E1E6EA"/>
<path d="M86.5883 114.127H80.5068C80.0186 114.127 79.623 114.523 79.623 115.011V119.148C79.623 119.636 80.0186 120.031 80.5068 120.031H86.5883C87.0764 120.031 87.472 119.636 87.472 119.148V115.011C87.472 114.523 87.0764 114.127 86.5883 114.127Z" fill="#FF8C71"/>
<path d="M82.7461 115.735L84.8091 117.079L82.7461 118.424V115.735Z" fill="white"/>
</g>
</g>
<defs>
<filter id="filter0_d_5010_157477" x="-4.125" y="-0.0498047" width="208.15" height="208.075" filterUnits="userSpaceOnUse" color-interpolation-filters="sRGB">
<feFlood flood-opacity="0" result="BackgroundImageFix"/>
<feColorMatrix in="SourceAlpha" type="matrix" values="0 0 0 0 0 0 0 0 0 0 0 0 0 0 0 0 0 0 127 0" result="hardAlpha"/>
<feOffset dy="4"/>
<feGaussianBlur stdDeviation="2"/>
<feComposite in2="hardAlpha" operator="out"/>
<feColorMatrix type="matrix" values="0 0 0 0 0 0 0 0 0 0 0 0 0 0 0 0 0 0 0.25 0"/>
<feBlend mode="normal" in2="BackgroundImageFix" result="effect1_dropShadow_5010_157477"/>
<feBlend mode="normal" in="SourceGraphic" in2="effect1_dropShadow_5010_157477" result="shape"/>
</filter>
<linearGradient id="paint0_linear_5010_157477" x1="-27.556" y1="1.47823" x2="210.209" y2="84.7361" gradientUnits="userSpaceOnUse">
<stop stop-color="#BFDCE8"/>
<stop offset="0.84" stop-color="#5F94EB"/>
</linearGradient>
<linearGradient id="paint1_linear_5010_157477" x1="-6.001" y1="64.2988" x2="210.502" y2="85.8142" gradientUnits="userSpaceOnUse">
<stop stop-color="#BFDCE8"/>
<stop offset="0.781012" stop-color="#2D79F6"/>
</linearGradient>
<clipPath id="clip0_5010_157477">
<rect width="200" height="200" fill="white"/>
</clipPath>
</defs>
</svg>
