<svg xmlns="http://www.w3.org/2000/svg" fill="currentColor" viewBox="0 0 20 20"><path d="M16.75 1.563h-9A1.687 1.687 0 0 0 6.062 3.25v4.5a.563.563 0 1 0 1.125 0v-4.5a.563.563 0 0 1 .563-.563h7.96l-3.093 1.16a.562.562 0 0 0-.367.528v11.25a.562.562 0 0 0 .365.527l3.095 1.16H7.75a.562.562 0 0 1-.563-.562v-4.5a.562.562 0 1 0-1.125 0v4.5a1.687 1.687 0 0 0 1.688 1.688h9a1.687 1.687 0 0 0 1.688-1.688V3.25a1.687 1.687 0 0 0-1.688-1.688Zm-3.375 3.202 3.938-1.477v13.424l-3.938-1.477V4.765Z"/><path d="M7.915 11.29a.563.563 0 1 0 .795.795l1.688-1.687a.563.563 0 0 0 0-.796L8.71 7.915a.562.562 0 0 0-.795.795l.727.727H2.125a.563.563 0 0 0 0 1.125h6.517l-.727.728Z"/></svg>