<svg viewBox="0 0 100 40" fill="none" xmlns="http://www.w3.org/2000/svg">
<g fill="currentColor">
    <path d="M38.3337 11.6667C38.3337 8.90524 36.0952 6.66666 33.3337 6.66666H6.66699C3.90558 6.66666 1.66699 8.90524 1.66699 11.6667H5.00033C5.00033 10.7462 5.74653 9.99999 6.66699 9.99999H33.3337C34.2542 9.99999 35.0003 10.7462 35.0003 11.6667V28.3333C35.0003 29.2538 34.2542 30 33.3337 30H25.0003C24.0798 30 23.3337 30.7462 23.3337 31.6667C23.3337 32.5872 24.0798 33.3333 25.0003 33.3333H33.3337C36.0952 33.3333 38.3337 31.0948 38.3337 28.3333V11.6667Z"/>
    <path d="M17.9379 33.301C18.8194 33.5258 19.7259 32.9938 19.8529 32.093C20.1368 30.078 20.0086 28.0205 19.4693 26.0465C18.7848 23.5413 17.4616 21.2568 15.6292 19.4165C13.7968 17.576 11.518 16.243 9.01577 15.5476C7.04424 14.9998 4.98724 14.8626 2.97115 15.1378C2.06975 15.2608 1.53371 16.165 1.75479 17.0475C1.97587 17.93 2.87107 18.4538 3.77585 18.3587C5.23354 18.2055 6.71209 18.3268 8.13369 18.7218C10.0863 19.2645 11.8646 20.3048 13.2946 21.741C14.7245 23.1772 15.7571 24.9598 16.2912 26.9148C16.6801 28.3382 16.7951 29.8173 16.6355 31.2743C16.5365 32.1787 17.0564 33.0762 17.9379 33.301Z"/>
    <path d="M10.9191 33.1212C11.7213 33.5442 12.7322 33.2383 12.99 32.3688C13.3357 31.2027 13.4239 29.9685 13.2399 28.7528C12.9735 26.9927 12.1503 25.364 10.8911 24.1055C9.6318 22.8472 8.00261 22.025 6.2422 21.7597C5.02646 21.5765 3.79226 21.6655 2.62643 22.012C1.75711 22.2703 1.45184 23.2813 1.87538 24.0833C2.29893 24.8852 3.29723 25.161 4.19243 25.0158C4.70576 24.9327 5.23208 24.9287 5.75281 25.0072C6.81946 25.1678 7.8066 25.666 8.56958 26.4285C9.33258 27.191 9.83133 28.1778 9.99276 29.2443C10.0716 29.765 10.068 30.2913 9.98508 30.8048C9.84055 31.7 10.117 32.6982 10.9191 33.1212Z"/>
    <path d="M6.66699 30.8333C6.66699 32.214 5.54771 33.3333 4.16699 33.3333C2.78628 33.3333 1.66699 32.214 1.66699 30.8333C1.66699 29.4527 2.78628 28.3333 4.16699 28.3333C5.54771 28.3333 6.66699 29.4527 6.66699 30.8333Z"/>
</g>
<path d="M54.26 23.625H49.778L48.968 27H44L48.968 11.61H55.313L60.065 27H55.07L54.26 23.625ZM51.992 14.931L50.399 20.628H53.612L52.1 14.931H51.992ZM81.2526 27H76.7166L76.3656 18.522C76.3116 16.848 76.2486 15.579 76.1766 14.715H76.0956C75.8796 15.399 75.6276 16.461 75.3396 17.901L75.2046 18.576L73.3416 27H68.8056L67.2396 19.413L66.9696 18.063C66.5916 16.389 66.3306 15.273 66.1866 14.715H66.1056C66.0336 15.615 65.9706 17.082 65.9166 19.116C65.8986 19.242 65.8896 19.44 65.8896 19.71L65.6466 27H61.0836L61.7316 11.61H69.4536L70.7766 18.252L71.1006 20.034C71.2446 19.476 71.3796 18.855 71.5056 18.171L72.7476 11.61H80.6316L81.2526 27ZM89.8452 11.529C91.3032 11.529 92.5362 11.664 93.5442 11.934C94.5522 12.204 95.3532 12.726 95.9472 13.5C96.5592 14.256 96.8652 15.345 96.8652 16.767C96.8652 17.397 96.7662 18.045 96.5682 18.711C96.3882 19.359 96.1542 19.926 95.8662 20.412C95.5962 20.898 95.3532 21.213 95.1372 21.357C94.8852 21.537 94.3272 21.681 93.4632 21.789C92.5992 21.879 91.5822 21.924 90.4122 21.924C89.9982 21.924 89.3592 21.906 88.4952 21.87V27H83.6352V11.61C85.5252 11.556 87.5952 11.529 89.8452 11.529ZM91.8702 18.468C92.0502 18.234 92.1402 17.766 92.1402 17.064C92.1402 16.146 91.9422 15.498 91.5462 15.12C91.1682 14.742 90.5022 14.553 89.5482 14.553C89.2242 14.553 88.8732 14.58 88.4952 14.634V18.738C88.6752 18.756 89.0262 18.765 89.5482 18.765C90.9342 18.765 91.7082 18.666 91.8702 18.468Z" fill="#bebebe"/>
</svg>
