<svg viewBox="0 0 12 12" xmlns="http://www.w3.org/2000/svg" fill="currentColor">
<path d="M5.04191 1.36162C7.08641 1.36162 8.72777 2.99869 8.72777 5.03786C8.72777 7.07702 7.08641 8.7141 5.04191 8.7141C2.99742 8.7141 1.35606 7.07702 1.35606 5.03786C1.35606 3.02741 2.99742 1.36162 5.04191 1.36162ZM5.04191 0.5C2.53668 0.5 0.492188 2.53916 0.492188 5.03786C0.492188 7.53655 2.53668 9.57572 5.04191 9.57572C7.54714 9.57572 9.59164 7.53655 9.59164 5.03786C9.59164 2.53916 7.54714 0.5 5.04191 0.5Z"/>
<path d="M10.6283 11.5C10.398 11.5 10.1964 11.4138 10.0236 11.2415L7.69115 8.91514C7.3456 8.57049 7.3456 8.02481 7.69115 7.70888C8.0367 7.36423 8.58382 7.36423 8.90057 7.70888L11.233 10.0353C11.5786 10.3799 11.5786 10.9256 11.233 11.2415C11.0603 11.4138 10.8299 11.5 10.6283 11.5Z"/>
</svg>
