<?xml version="1.0" standalone="no"?>
<!DOCTYPE svg PUBLIC "-//W3C//DTD SVG 20010904//EN"
 "http://www.w3.org/TR/2001/REC-SVG-20010904/DTD/svg10.dtd">
<svg version="1.0" xmlns="http://www.w3.org/2000/svg"
 width="700.000000pt" height="700.000000pt" viewBox="0 0 700.000000 700.000000"
 preserveAspectRatio="xMidYMid meet">
<metadata>
Created by potrace 1.14, written by Peter Selinger 2001-2017
</metadata>
<g transform="translate(0.000000,700.000000) scale(0.100000,-0.100000)"
fill="#000000" stroke="none">
<path d="M0 3500 l0 -3500 3500 0 3500 0 0 3500 0 3500 -3500 0 -3500 0 0
-3500z m1764 1463 c12 -56 486 -2798 486 -2810 0 -10 -54 -13 -240 -13 -283 0
-248 -23 -275 183 l-19 137 -281 0 -281 0 -19 -137 c-27 -206 8 -183 -275
-183 -196 0 -240 3 -240 14 0 13 479 2677 501 2784 l10 52 314 0 313 0 6 -27z
m1476 -245 c102 -147 188 -270 191 -273 3 -3 91 119 195 270 l189 275 273 0
272 0 2 -1275 c2 -701 3 -1341 3 -1422 l0 -148 -247 -3 -248 -2 0 1050 c0 577
-3 1050 -7 1050 -5 0 -102 -138 -217 -305 -116 -168 -211 -305 -212 -305 0 0
-95 138 -210 306 l-209 307 -6 -859 c-3 -473 -7 -946 -8 -1051 l-1 -193 -245
0 -245 0 0 1328 c0 730 3 1371 7 1425 l6 97 266 -2 266 -3 185 -267z m2530
248 c390 -108 607 -468 562 -933 -20 -217 -76 -369 -191 -520 -107 -142 -255
-245 -421 -293 -63 -19 -109 -23 -292 -27 l-218 -5 0 -524 0 -524 -247 2 -248
3 -3 230 c-2 127 0 767 4 1423 l6 1193 492 -3 c435 -4 498 -6 556 -22z"/>
<path d="M1437 4160 c-3 -8 -8 -40 -12 -70 -3 -30 -46 -307 -96 -614 -49 -308
-89 -563 -89 -568 0 -4 88 -8 195 -8 107 0 195 3 195 7 0 14 -181 1248 -184
1258 -2 6 -6 3 -9 -5z"/>
<path d="M5298 4503 l-88 -4 0 -404 0 -405 178 0 c123 1 189 5 215 14 128 46
214 176 236 358 24 193 -42 349 -175 414 -48 23 -68 27 -167 29 -62 1 -151 0
-199 -2z"/>
</g>
</svg>
